<svg xmlns="http://www.w3.org/2000/svg" width="38" height="38" viewBox="0 0 38 38">
  <g id="Group_3592" data-name="Group 3592" transform="translate(-4.079 -4.079)">
    <path id="Path_1310" data-name="Path 1310" d="M23.079,7.5c5.073,0,5.674.019,7.678.111a10.516,10.516,0,0,1,3.528.654,6.292,6.292,0,0,1,3.606,3.606,10.516,10.516,0,0,1,.654,3.528c.091,2,.111,2.6.111,7.678s-.019,5.674-.111,7.678a10.516,10.516,0,0,1-.654,3.528,6.292,6.292,0,0,1-3.606,3.606,10.516,10.516,0,0,1-3.528.654c-2,.091-2.6.111-7.678.111s-5.674-.019-7.678-.111a10.516,10.516,0,0,1-3.528-.654,6.292,6.292,0,0,1-3.606-3.606,10.516,10.516,0,0,1-.654-3.528c-.091-2-.111-2.6-.111-7.678s.019-5.674.111-7.678a10.516,10.516,0,0,1,.654-3.528,6.292,6.292,0,0,1,3.606-3.606A10.516,10.516,0,0,1,15.4,7.613c2-.091,2.6-.111,7.678-.111m0-3.423c-5.16,0-5.807.022-7.834.114a13.946,13.946,0,0,0-4.612.883,9.716,9.716,0,0,0-5.557,5.557,13.946,13.946,0,0,0-.883,4.612c-.092,2.026-.114,2.674-.114,7.834s.022,5.807.114,7.834a13.946,13.946,0,0,0,.883,4.612,9.716,9.716,0,0,0,5.557,5.557,13.946,13.946,0,0,0,4.612.883c2.026.092,2.674.114,7.834.114s5.807-.022,7.834-.114a13.946,13.946,0,0,0,4.612-.883,9.716,9.716,0,0,0,5.557-5.557,13.946,13.946,0,0,0,.883-4.612c.092-2.026.114-2.674.114-7.834s-.022-5.807-.114-7.834a13.946,13.946,0,0,0-.883-4.612,9.716,9.716,0,0,0-5.557-5.557,13.946,13.946,0,0,0-4.612-.883c-2.026-.092-2.674-.114-7.834-.114Z" transform="translate(0 0)" fill="#fff"/>
    <path id="Path_1311" data-name="Path 1311" d="M136.392,126.635a9.757,9.757,0,1,0,9.757,9.757A9.757,9.757,0,0,0,136.392,126.635Zm0,16.09a6.333,6.333,0,1,1,6.333-6.333A6.333,6.333,0,0,1,136.392,142.725Z" transform="translate(-113.313 -113.313)" fill="#fff"/>
    <circle id="Ellipse_1" data-name="Ellipse 1" cx="2.28" cy="2.28" r="2.28" transform="translate(30.941 10.657)" fill="#fff"/>
  </g>
</svg>
